<?xml version="1.0" encoding="UTF-8" standalone="no"?> <svg xmlns:xhtml="http://www.w3.org/1999/xhtml" xmlns:dc="http://purl.org/dc/elements/1.1/" xmlns:cc="http://creativecommons.org/ns#" xmlns:rdf="http://www.w3.org/1999/02/22-rdf-syntax-ns#" xmlns:svg="http://www.w3.org/2000/svg" xmlns="http://www.w3.org/2000/svg" xmlns:sodipodi="http://sodipodi.sourceforge.net/DTD/sodipodi-0.dtd" xmlns:inkscape="http://www.inkscape.org/namespaces/inkscape" version="1.1" width="401px" height="201px" viewBox="-0.5 -0.5 401 201" id="svg3873" sodipodi:docname="Untitled Diagram(1).svg" inkscape:version="0.92.5 (2060ec1f9f, 2020-04-08)"><metadata id="metadata3877"></metadata><defs id="defs3815"></defs><g id="g3863"><rect x="0" y="0" width="120" height="200" fill="#00b300" stroke="#000000" id="rect3817"></rect><g transform="translate(-0.5 -0.5)" id="g3823"><switch id="switch3821"><text x="60" y="104" fill="#000000" font-family="Helvetica" font-size="12px" text-anchor="middle" id="text3819">DevTools Client</text></switch></g><rect x="135" y="50" width="130" height="20" fill="none" stroke="none" id="rect3825"></rect><g transform="translate(-0.5 -0.5)" id="g3831"><switch id="switch3829"><text x="200" y="64" fill="#000000" font-family="Helvetica" font-size="12px" text-anchor="middle" id="text3827">DevTools Commands</text></switch></g><rect x="135" y="120" width="130" height="50" fill="none" stroke="none" id="rect3833"></rect><g transform="translate(-0.5 -0.5)" id="g3839"><switch id="switch3837" transform="translate(0.45798856)"><text x="200" y="149" font-size="12px" id="text3835" style="font-size:12px;font-family:Helvetica;text-anchor:middle;fill:#000000">Command Responses</text></switch><text xml:space="preserve" style="font-style:normal;font-weight:normal;font-size:12px;line-height:1.25;font-family:sans-serif;letter-spacing:0px;word-spacing:0px;fill:#000000;fill-opacity:1;stroke:none" x="179.88965" y="169.3271" id="text3881"><tspan sodipodi:role="line" id="tspan3879" x="179.88965" y="169.3271">Events</tspan></text></g><rect x="280" y="0" width="120" height="200" fill="#ff7139" stroke="#000000" id="rect3841"></rect><g transform="translate(-0.5 -0.5)" id="g3847"><switch id="switch3845"><text x="340" y="104" fill="#000000" font-family="Helvetica" font-size="12px" text-anchor="middle" id="text3843">Browser</text></switch></g><path d="M 126.37 100 L 273.63 100" fill="none" stroke="#000000" stroke-miterlimit="10" id="path3849"></path><path d="M 121.12 100 L 128.12 96.5 L 126.37 100 L 128.12 103.5 Z" fill="#000000" stroke="#000000" stroke-miterlimit="10" id="path3851"></path><path d="M 278.88 100 L 271.88 103.5 L 273.63 100 L 271.88 96.5 Z" fill="#000000" stroke="#000000" stroke-miterlimit="10" id="path3853"></path><path d="M 180 80 L 213.63 80" fill="none" stroke="#000000" stroke-miterlimit="10" id="path3855"></path><path d="M 218.88 80 L 211.88 83.5 L 213.63 80 L 211.88 76.5 Z" fill="#000000" stroke="#000000" stroke-miterlimit="10" id="path3857"></path><path d="M 220 110 L 186.37 110" fill="none" stroke="#000000" stroke-miterlimit="10" id="path3859"></path><path d="M 181.12 110 L 188.12 106.5 L 186.37 110 L 188.12 113.5 Z" fill="#000000" stroke="#000000" stroke-miterlimit="10" id="path3861"></path></g></svg> 